<svg height="64" viewBox="0 0 32 32" width="64" xmlns="http://www.w3.org/2000/svg"><g stroke-width=".424533" transform="matrix(1.2327382 0 0 1.2327382 -44.651454 13.534524)"><path d="m60.258392-10.978809h-22.121116c-1.057086 0-1.915916.838027-1.915916 1.87049v22.214515c0 1.033737.85883 1.872613 1.915916 1.872613h22.121116c1.05879 0 1.92144-.838876 1.92144-1.872613v-22.214515c.00042-1.032463-.86223-1.87049-1.92144-1.87049z" fill="#0177b5"/><g fill="#fff"><path d="m40.070173-1.247249h3.85051v12.387859h-3.85051zm1.926104-6.157845c1.23072 0 2.230918 1.000199 2.230918 2.231768 0 1.232418-1.000198 2.232616-2.230918 2.232616-1.234116 0-2.233042-1.000198-2.233042-2.232616 0-1.231569.998926-2.231768 2.233042-2.231768"/><path d="m46.335424-1.247249h3.692584v1.692611h.05137c.514109-.973878 1.769874-2.000822 3.642914-2.000822 3.89891 0 4.61849 2.565875 4.61849 5.901002v6.794644h-3.84754v-6.024117c0-1.436618-.0263-3.284608-2.00082-3.284608-2.00337 0-2.310731 1.564827-2.310731 3.180598v6.128127h-3.84669v-12.387435z"/></g></g></svg>